<?xml version="1.0" encoding="utf-8"?>
<svg xmlns="http://www.w3.org/2000/svg" xmlns:xlink="http://www.w3.org/1999/xlink" style="margin: auto; background: none; display: block; shape-rendering: auto;" width="50px" height="50px" viewBox="0 0 100 100" preserveAspectRatio="xMidYMid">
<g transform="translate(50 50)">
<g>
<animateTransform attributeName="transform" type="rotate" values="0;51.42857142857143" keyTimes="0;1" dur="0.24570024570024568s" repeatCount="indefinite"></animateTransform><path d="M31.10868046060456 -7.5 L41.10868046060456 -7.5 L41.10868046060456 7.5 L31.10868046060456 7.5 A32 32 0 0 1 25.259681134979218 19.645572248198192 L25.259681134979218 19.645572248198192 L31.494579153566555 27.46388707287849 L19.767106916546112 36.81623410075949 L13.532208897958775 28.997919276079195 A32 32 0 0 1 0.38962671112139985 31.997627896861054 L0.38962671112139985 31.997627896861054 L-1.8355826284417436 41.746907018679295 L-16.45950131116909 38.409093009334576 L-14.234291971605948 28.65981388751634 A32 32 0 0 1 -24.773824573147312 20.25481710652857 L-24.773824573147312 20.25481710652857 L-33.7835132521715 24.59365449770415 L-40.29176933893488 11.079121479167872 L-31.282080659910683 6.740284087992291 A32 32 0 0 1 -31.282080659910683 -6.740284087992283 L-31.282080659910683 -6.740284087992283 L-40.29176933893488 -11.079121479167863 L-33.78351325217151 -24.593654497704144 L-24.773824573147316 -20.254817106528563 A32 32 0 0 1 -14.234291971605968 -28.65981388751633 L-14.234291971605968 -28.65981388751633 L-16.459501311169113 -38.40909300933457 L-1.8355826284417398 -41.746907018679295 L0.38962671112140623 -31.997627896861054 A32 32 0 0 1 13.532208897958753 -28.997919276079205 L13.532208897958753 -28.997919276079205 L19.767106916546087 -36.8162341007595 L31.49457915356655 -27.463887072878492 L25.259681134979218 -19.645572248198192 A32 32 0 0 1 31.108680460604557 -7.500000000000018 M0 -18A18 18 0 1 0 0 18 A18 18 0 1 0 0 -18" fill="#e85a4f"></path></g></g>
<!-- [ldio] generated by https://loading.io/ --></svg>