<?xml version="1.0" encoding="utf-8"?>
<svg xmlns="http://www.w3.org/2000/svg" xmlns:xlink="http://www.w3.org/1999/xlink" style="margin: auto; background: none; display: block; shape-rendering: auto;" width="50px" height="50px" viewBox="0 0 100 100" preserveAspectRatio="xMidYMid">
<g transform="translate(50 50)">
<g>
<animateTransform attributeName="transform" type="rotate" values="0;45" keyTimes="0;1" dur="0.273972602739726s" repeatCount="indefinite"></animateTransform><path d="M31.432467291003423 -6 L39.43246729100342 -6 L39.43246729100342 6 L31.432467291003423 6 A32 32 0 0 1 26.468751458012154 17.983470083773582 L26.468751458012154 17.983470083773582 L32.12560570750453 23.640324333265962 L23.640324333265966 32.12560570750453 L17.983470083773586 26.468751458012154 A32 32 0 0 1 6.000000000000005 31.43246729100342 L6.000000000000005 31.43246729100342 L6.000000000000006 39.43246729100342 L-6.000000000000001 39.43246729100342 L-6.000000000000002 31.432467291003423 A32 32 0 0 1 -17.98347008377358 26.468751458012157 L-17.98347008377358 26.468751458012157 L-23.64032433326596 32.12560570750454 L-32.12560570750453 23.640324333265962 L-26.468751458012154 17.983470083773582 A32 32 0 0 1 -31.43246729100342 6.000000000000008 L-31.43246729100342 6.000000000000008 L-39.43246729100342 6.000000000000009 L-39.43246729100342 -5.999999999999999 L-31.432467291003423 -6 A32 32 0 0 1 -26.46875145801216 -17.983470083773575 L-26.46875145801216 -17.983470083773575 L-32.12560570750454 -23.640324333265955 L-23.640324333265966 -32.12560570750453 L-17.983470083773586 -26.468751458012154 A32 32 0 0 1 -6.00000000000001 -31.43246729100342 L-6.00000000000001 -31.43246729100342 L-6.0000000000000115 -39.43246729100342 L5.9999999999999964 -39.43246729100342 L5.999999999999998 -31.432467291003423 A32 32 0 0 1 17.983470083773575 -26.46875145801216 L17.983470083773575 -26.46875145801216 L23.640324333265955 -32.12560570750454 L32.12560570750453 -23.640324333265966 L26.468751458012154 -17.983470083773586 A32 32 0 0 1 31.43246729100342 -6.0000000000000115 M0 -20A20 20 0 1 0 0 20 A20 20 0 1 0 0 -20" fill="#d9b08c"></path></g></g>
<!-- [ldio] generated by https://loading.io/ --></svg>